<?xml version="1.0" encoding="utf-8"?>
<!-- Generator: Adobe Illustrator 28.5.0, SVG Export Plug-In . SVG Version: 9.03 Build 54727)  -->
<svg version="1.0" xmlns="http://www.w3.org/2000/svg" xmlns:xlink="http://www.w3.org/1999/xlink" x="0px" y="0px"
	 viewBox="0 0 1110.7 359.7" style="enable-background:new 0 0 1110.7 359.7;" xml:space="preserve">
<style type="text/css">
	.st0{display:none;}
	.st1{display:inline;}
	.st2{fill:#FFFFFF;}
	.st3{fill:#FFFFFF;stroke:#FFFFFF;stroke-width:1.2217;}
	.st4{fill:#FF0000;filter:url(#Adobe_OpacityMaskFilter);}
	.st5{mask:url(#mask0_1467_11_00000138569387572024131200000002774218034149348008_);}
	.st6{fill:url(#SVGID_1_);}
	.st7{fill:#FCEFE6;fill-opacity:0.58;}
	.st8{fill:none;stroke:#2E2E2E;stroke-width:1.3438;stroke-linecap:round;stroke-linejoin:round;}
	.st9{fill:#FF7377;stroke:#2E2E2E;stroke-width:1.3438;stroke-linejoin:round;}
	.st10{fill:#FCEFE6;}
	.st11{fill:none;stroke:#FFFFFF;stroke-width:1.3438;stroke-linecap:round;stroke-linejoin:round;stroke-miterlimit:10;}
	.st12{fill:#FF7377;}
	.st13{fill:#2E2E2E;}
	.st14{fill:none;stroke:#FCEFE6;stroke-width:1.459;stroke-linecap:round;stroke-linejoin:round;}
	.st15{fill:url(#SVGID_00000142879122442080097570000002936957133583236484_);}
</style>
<g id="Layer_2" class="st0">
	<g class="st1">
		<path class="st2" d="M88.4,317.2l5.4-36.4l0.1-0.5c0,0,0,0,0,0l0-0.1h-3.3h-1.7h-1.7h-6.7H67l0,0.1c0,0,0,0,0,0l0.1,0.5l2,13.3
			c-0.9-0.4-2-0.6-3.1-0.6c-4.3,0-7.8,3.5-7.8,7.8c0,4.3,3.5,7.8,7.8,7.8c1.9,0,3.7-0.7,5-1.8l1.4,10L88.4,317.2L88.4,317.2z"/>
		<path class="st3" d="M81.1,282.8L81.1,282.8c6.8,0,9.8-0.6,11.8-1.3l0.3-0.1l0.1-0.3c0.1-0.3,0.2-0.5,0.3-0.7
			c0-0.1,0.1-0.1,0.1-0.2c0.1-0.2,0.2-0.5,0.2-0.7c0-0.3-0.1-0.5-0.2-0.8c-0.1-0.2-0.3-0.5-0.5-0.9l0,0l0,0c-0.6-1-1.7-1.3-2.5-1.5
			c0,0-0.1,0-0.1,0c-0.4-0.1-0.7-0.2-1-0.3c-0.3-0.1-0.5-0.3-0.7-0.5l0,0c-0.2-0.3-0.3-0.7-0.3-1.3c0,0,0-0.1,0-0.1
			c0-0.3-0.1-0.6-0.1-0.8c-0.1-0.3-0.2-0.7-0.3-1l-0.1-0.1l-0.1-0.1c-0.6-0.5-1.3-0.8-2-0.8c-0.7,0-1.3,0.2-1.9,0.4
			c-0.3,0.1-0.6,0.2-0.9,0.4l0,0c-0.3,0.1-0.5,0.2-0.8,0.3c-0.5,0.2-1,0.4-1.5,0.4c-0.6,0-1.3-0.2-2.1-0.6c0,0,0,0-0.1,0
			c-0.7-0.3-1.6-0.7-2.6-0.7h0c-0.8,0-1.8,0.3-2.7,0.6c-0.9,0.4-1.8,0.8-2.4,1.3l0,0c-0.7,0.6-1.7,1.7-2.4,3
			c-0.7,1.2-1.4,2.7-1.3,3.9c0,0.2,0,0.4,0,0.7l0,0.4l0.4,0.1c2,0.7,5.7,1.2,12.2,1.2v0h0H81.1z"/>
		<defs>
			<filter id="Adobe_OpacityMaskFilter" filterUnits="userSpaceOnUse" x="58.2" y="288.2" width="35.7" height="34.8">
				<feColorMatrix  type="matrix" values="1 0 0 0 0  0 1 0 0 0  0 0 1 0 0  0 0 0 1 0"/>
			</filter>
		</defs>
		
			<mask maskUnits="userSpaceOnUse" x="58.2" y="288.2" width="35.7" height="34.8" id="mask0_1467_11_00000138569387572024131200000002774218034149348008_">
			<path class="st4" d="M88.4,317.2l5.4-36.4l0.1-0.5c0,0,0,0,0,0l0-0.1h-3.3h-1.7h-1.7h-6.7H67l0,0.1c0,0,0,0,0,0l0.1,0.5l2,13.3
				c-0.9-0.4-2-0.6-3.1-0.6c-4.3,0-7.8,3.5-7.8,7.8s3.5,7.8,7.8,7.8c1.9,0,3.7-0.7,5-1.8l1.4,10L88.4,317.2L88.4,317.2z"/>
		</mask>
		<g class="st5">
			
				<linearGradient id="SVGID_1_" gradientUnits="userSpaceOnUse" x1="76.0816" y1="165.8461" x2="76.0816" y2="131.0043" gradientTransform="matrix(1 0 0 -1 0 454.0482)">
				<stop  offset="0" style="stop-color:#96551F"/>
				<stop  offset="0.575" style="stop-color:#FCEFE6"/>
			</linearGradient>
			<rect x="58.2" y="288.2" class="st6" width="35.7" height="34.8"/>
			<rect x="58.2" y="288.2" class="st7" width="35.7" height="34.8"/>
		</g>
		<path class="st8" d="M82.3,280.2h-1.8H67l0,0.1c0,0,0,0,0,0l0.1,0.5l2,13.3c-0.9-0.4-2-0.6-3.1-0.6c-4.3,0-7.8,3.5-7.8,7.8
			c0,4.3,3.5,7.8,7.8,7.8c1.9,0,3.7-0.7,5-1.8l1.4,10h15.8l0,0l5.4-36.4l0.1-0.5c0,0,0,0,0,0l0-0.1h-4"/>
		<path class="st9" d="M66,305.1c2.2,0,3.9-1.7,3.9-3.8s-1.8-3.8-3.9-3.8c-2.2,0-3.9,1.7-3.9,3.8S63.8,305.1,66,305.1z"/>
		<path class="st10" d="M98,280l6.6-1L98,280z"/>
		<path class="st11" d="M98,280l6.6-1"/>
		<path class="st10" d="M97.2,274.3l4.6-4.4L97.2,274.3z"/>
		<path class="st11" d="M97.2,274.3l4.6-4.4"/>
		<path class="st10" d="M92.4,266.2c0,0.1-0.2,6.4-0.2,6.4L92.4,266.2z"/>
		<path class="st11" d="M92.4,266.2c0,0.1-0.2,6.4-0.2,6.4"/>
		<path class="st12" d="M99.1,311.1L83,304.1c-0.8-0.3-1.7,0.3-1.5,1.2l2.8,17.5c0.2,1,1.5,1.2,1.9,0.3l2.8-6.1l6.8,8.7l3.5-2.8
			l-6.8-8.7l6.5-1.3C99.9,312.8,100,311.5,99.1,311.1z"/>
		<path class="st13" d="M99.1,311.1L83,304.1c-0.8-0.3-1.7,0.3-1.5,1.2l2.8,17.5c0.2,1,1.5,1.2,1.9,0.3l2.8-6.1l6.8,8.7l3.5-2.8
			l-6.8-8.7l6.5-1.3C99.9,312.8,100,311.5,99.1,311.1z"/>
		<path class="st10" d="M114.2,319.4v-12.7h2.9v12.7H114.2z M122.7,319.4v-7.6c0-0.8-0.3-1.5-0.8-2c-0.5-0.5-1.2-0.7-2-0.7
			c-0.5,0-1,0.1-1.4,0.3c-0.4,0.2-0.7,0.5-1,0.9c-0.2,0.4-0.4,0.9-0.4,1.4l-1.1-0.6c0-1,0.2-1.8,0.6-2.5c0.4-0.7,1-1.3,1.7-1.6
			c0.7-0.4,1.5-0.6,2.4-0.6c0.9,0,1.7,0.2,2.4,0.6c0.7,0.4,1.3,0.9,1.7,1.6s0.6,1.6,0.6,2.5v8.2H122.7z M131.2,319.4v-7.6
			c0-0.8-0.3-1.5-0.8-2c-0.5-0.5-1.2-0.7-2-0.7c-0.5,0-1,0.1-1.4,0.3c-0.4,0.2-0.8,0.5-1,0.9c-0.2,0.4-0.4,0.9-0.4,1.4l-1.6-0.6
			c0.1-1,0.4-1.8,0.8-2.5c0.5-0.7,1.1-1.3,1.8-1.6c0.8-0.4,1.6-0.6,2.5-0.6c0.9,0,1.8,0.2,2.5,0.6c0.7,0.4,1.3,0.9,1.8,1.6
			c0.4,0.7,0.7,1.6,0.7,2.5v8.2H131.2z M142.4,319.7c-1.1,0-2.2-0.3-3.1-0.9c-0.9-0.6-1.7-1.4-2.2-2.4c-0.5-1-0.8-2.1-0.8-3.4
			c0-1.3,0.3-2.4,0.8-3.4c0.5-1,1.3-1.8,2.2-2.4c0.9-0.6,2-0.9,3.1-0.9c1,0,1.8,0.2,2.6,0.6c0.8,0.4,1.4,1,1.8,1.7
			c0.4,0.7,0.7,1.5,0.7,2.5v3.7c0,0.9-0.2,1.7-0.7,2.5c-0.4,0.7-1,1.3-1.8,1.7C144.3,319.5,143.4,319.7,142.4,319.7z M142.9,316.9
			c1.1,0,1.9-0.4,2.6-1.1c0.7-0.7,1-1.7,1-2.8c0-0.8-0.2-1.4-0.5-2c-0.3-0.6-0.7-1-1.3-1.4c-0.5-0.3-1.2-0.5-1.9-0.5
			c-0.7,0-1.3,0.2-1.9,0.5c-0.5,0.3-1,0.8-1.3,1.4c-0.3,0.6-0.5,1.3-0.5,2c0,0.8,0.2,1.4,0.5,2c0.3,0.6,0.7,1,1.3,1.4
			C141.6,316.8,142.2,316.9,142.9,316.9z M146.3,319.4V316l0.5-3.1l-0.5-3.1v-3.1h2.9v12.7H146.3z M158.3,319.7
			c-1.3,0-2.4-0.3-3.4-0.9c-1-0.6-1.8-1.4-2.4-2.4c-0.6-1-0.9-2.1-0.9-3.4c0-1.3,0.3-2.4,0.9-3.4c0.6-1,1.4-1.8,2.4-2.4
			c1-0.6,2.2-0.9,3.4-0.9c1,0,1.9,0.2,2.8,0.6c0.9,0.4,1.6,0.9,2.2,1.6l-1.9,1.9c-0.4-0.4-0.8-0.8-1.4-1c-0.5-0.2-1.1-0.3-1.7-0.3
			c-0.7,0-1.4,0.2-1.9,0.5c-0.5,0.3-1,0.8-1.3,1.3c-0.3,0.6-0.5,1.2-0.5,2c0,0.7,0.2,1.4,0.5,2c0.3,0.6,0.8,1,1.3,1.4
			c0.6,0.3,1.2,0.5,1.9,0.5c0.6,0,1.2-0.1,1.7-0.3c0.5-0.2,1-0.6,1.4-1l1.9,1.9c-0.6,0.7-1.3,1.3-2.2,1.6
			C160.2,319.5,159.3,319.7,158.3,319.7z M171,319.7c-1.3,0-2.4-0.3-3.4-0.9c-1-0.6-1.8-1.4-2.4-2.4c-0.6-1-0.9-2.1-0.9-3.4
			c0-1.3,0.3-2.4,0.9-3.4c0.6-1,1.4-1.8,2.4-2.4c1-0.6,2.2-0.9,3.4-0.9c1,0,1.9,0.2,2.8,0.6c0.9,0.4,1.6,0.9,2.2,1.6l-1.9,1.9
			c-0.4-0.4-0.8-0.8-1.4-1c-0.5-0.2-1.1-0.3-1.7-0.3c-0.7,0-1.4,0.2-1.9,0.5c-0.5,0.3-1,0.8-1.3,1.3c-0.3,0.6-0.5,1.2-0.5,2
			c0,0.7,0.2,1.4,0.5,2c0.3,0.6,0.8,1,1.3,1.4c0.6,0.3,1.2,0.5,1.9,0.5c0.6,0,1.2-0.1,1.7-0.3c0.5-0.2,1-0.6,1.4-1l1.9,1.9
			c-0.6,0.7-1.3,1.3-2.2,1.6C172.9,319.5,172,319.7,171,319.7z M186.8,319.4v-7.3c0-0.8-0.3-1.5-0.8-2.1c-0.5-0.5-1.2-0.8-2.1-0.8
			c-0.6,0-1.1,0.1-1.5,0.4c-0.4,0.2-0.8,0.6-1,1c-0.2,0.4-0.4,0.9-0.4,1.5l-1.1-0.6c0-1,0.2-1.8,0.6-2.6c0.4-0.8,1-1.4,1.8-1.8
			c0.8-0.4,1.6-0.7,2.5-0.7c1,0,1.8,0.2,2.5,0.6c0.7,0.4,1.3,1,1.8,1.8c0.4,0.7,0.6,1.6,0.6,2.6v8H186.8z M178.1,319.4v-19.1h2.9
			v19.1H178.1z M192.7,319.4v-12.7h2.9v12.7H192.7z M194.2,304.4c-0.5,0-0.9-0.2-1.2-0.5c-0.3-0.3-0.5-0.8-0.5-1.2
			c0-0.5,0.2-0.9,0.5-1.2c0.3-0.3,0.8-0.5,1.2-0.5c0.5,0,0.9,0.2,1.2,0.5c0.3,0.3,0.5,0.8,0.5,1.2c0,0.5-0.2,0.9-0.5,1.2
			C195.1,304.2,194.7,304.4,194.2,304.4z M204.2,319.7c-1.2,0-2.2-0.3-3.1-0.9c-0.9-0.6-1.7-1.4-2.2-2.4c-0.5-1-0.8-2.1-0.8-3.4
			c0-1.3,0.3-2.4,0.8-3.4c0.5-1,1.3-1.8,2.2-2.4c0.9-0.6,2-0.9,3.1-0.9c1,0,1.8,0.2,2.6,0.6c0.8,0.4,1.4,1,1.8,1.7
			c0.4,0.7,0.7,1.5,0.7,2.5v3.7c0,0.9-0.2,1.7-0.7,2.5c-0.4,0.7-1,1.3-1.8,1.7C206.1,319.5,205.2,319.7,204.2,319.7z M204.7,316.9
			c1.1,0,1.9-0.4,2.6-1.1c0.7-0.7,1-1.7,1-2.8c0-0.8-0.1-1.4-0.5-2c-0.3-0.6-0.7-1-1.3-1.4c-0.5-0.3-1.2-0.5-1.9-0.5
			c-0.7,0-1.3,0.2-1.9,0.5c-0.5,0.3-1,0.8-1.3,1.4c-0.3,0.6-0.5,1.3-0.5,2c0,0.8,0.2,1.4,0.5,2c0.3,0.6,0.7,1,1.3,1.4
			C203.4,316.8,204,316.9,204.7,316.9z M208.1,319.4V316l0.5-3.1l-0.5-3.1v-3.1h2.9v12.7H208.1z M216.2,319.4v-18h2.9v18H216.2z
			 M213.2,309.3v-2.7h9v2.7H213.2z"/>
		<path class="st10" d="M225.2,316.6c-0.4,0-0.8-0.1-1.1-0.4s-0.4-0.7-0.4-1.1c0-0.4,0.1-0.8,0.4-1.1c0.3-0.3,0.6-0.4,1.1-0.4
			c0.4,0,0.8,0.1,1.1,0.4c0.3,0.3,0.4,0.7,0.4,1.1c0,0.4-0.1,0.8-0.4,1.1C226,316.4,225.6,316.6,225.2,316.6z M229,316.4v-9h2.5v9
			H229z M230.2,306c-0.4,0-0.7-0.1-1-0.4c-0.3-0.3-0.4-0.6-0.4-1c0-0.4,0.1-0.7,0.4-1c0.3-0.3,0.6-0.4,1-0.4c0.4,0,0.7,0.1,1,0.4
			c0.3,0.3,0.4,0.6,0.4,1c0,0.4-0.1,0.7-0.4,1C230.9,305.9,230.6,306,230.2,306z M237.8,316.6c-0.9,0-1.7-0.2-2.5-0.6
			c-0.7-0.4-1.3-1-1.7-1.7c-0.4-0.7-0.6-1.5-0.6-2.4c0-0.9,0.2-1.7,0.6-2.4c0.4-0.7,1-1.3,1.7-1.7c0.7-0.4,1.5-0.6,2.4-0.6
			c0.9,0,1.7,0.2,2.5,0.6c0.7,0.4,1.3,1,1.7,1.7c0.4,0.7,0.6,1.5,0.6,2.4c0,0.9-0.2,1.7-0.6,2.4c-0.4,0.7-1,1.3-1.7,1.7
			C239.5,316.4,238.7,316.6,237.8,316.6z M237.8,314.3c0.5,0,0.9-0.1,1.2-0.3c0.4-0.2,0.6-0.5,0.8-0.9c0.2-0.4,0.3-0.8,0.3-1.3
			c0-0.5-0.1-0.9-0.3-1.2c-0.2-0.4-0.5-0.6-0.8-0.8c-0.3-0.2-0.7-0.3-1.2-0.3c-0.4,0-0.8,0.1-1.2,0.3c-0.3,0.2-0.6,0.5-0.8,0.8
			s-0.3,0.8-0.3,1.2c0,0.5,0.1,0.9,0.3,1.3c0.2,0.4,0.5,0.6,0.8,0.9C236.9,314.2,237.3,314.3,237.8,314.3z"/>
		<path class="st14" d="M224.9,323.1l19.4-3.4"/>
		<path class="st10" d="M114.6,294.5v-18.6h3.1v18.6H114.6z M116.7,294.5v-2.8h9.7v2.8H116.7z M133.7,294.7c-1.1,0-2.2-0.3-3.1-0.9
			c-0.9-0.6-1.7-1.4-2.2-2.4c-0.5-1-0.8-2.1-0.8-3.4c0-1.3,0.3-2.4,0.8-3.4c0.5-1,1.3-1.8,2.2-2.4c0.9-0.6,2-0.9,3.1-0.9
			c1,0,1.8,0.2,2.6,0.6c0.8,0.4,1.4,1,1.8,1.7c0.4,0.7,0.7,1.5,0.7,2.5v3.7c0,0.9-0.2,1.7-0.7,2.5c-0.4,0.7-1,1.3-1.8,1.7
			C135.6,294.5,134.7,294.7,133.7,294.7z M134.2,292c1.1,0,1.9-0.4,2.6-1.1c0.7-0.7,1-1.7,1-2.8c0-0.8-0.2-1.4-0.5-2
			c-0.3-0.6-0.7-1-1.3-1.4c-0.5-0.3-1.2-0.5-1.9-0.5c-0.7,0-1.3,0.2-1.9,0.5c-0.5,0.3-1,0.8-1.3,1.4c-0.3,0.6-0.5,1.3-0.5,2
			c0,0.8,0.2,1.4,0.5,2c0.3,0.6,0.7,1,1.3,1.4C132.9,291.8,133.5,292,134.2,292z M137.6,294.5v-3.4l0.5-3.1l-0.5-3.1v-3.1h2.9v12.7
			H137.6z M145.7,294.5v-18h2.9v18H145.7z M142.7,284.4v-2.7h16.7v2.7H142.7z M153.4,294.5v-18h2.9v18H153.4z M167,294.7
			c-1.3,0-2.4-0.3-3.4-0.8c-1-0.6-1.8-1.4-2.4-2.4c-0.6-1-0.9-2.1-0.9-3.4c0-1.3,0.3-2.4,0.9-3.4c0.6-1,1.4-1.8,2.4-2.4
			c1-0.6,2.1-0.9,3.3-0.9c1.2,0,2.2,0.3,3.1,0.8c0.9,0.5,1.6,1.3,2.1,2.3c0.5,1,0.8,2,0.8,3.3c0,0.2,0,0.4-0.1,0.7
			c0,0.2-0.1,0.5-0.1,0.7h-10.5v-2.4h8.9l-1.1,1c0-0.8-0.2-1.4-0.5-2c-0.3-0.5-0.6-0.9-1.1-1.2c-0.5-0.3-1.1-0.4-1.8-0.4
			c-0.7,0-1.4,0.2-1.9,0.5c-0.5,0.3-1,0.8-1.3,1.4c-0.3,0.6-0.5,1.2-0.5,2s0.2,1.5,0.5,2.1c0.3,0.6,0.8,1.1,1.4,1.4
			c0.6,0.3,1.3,0.5,2,0.5c0.7,0,1.3-0.1,1.8-0.3c0.6-0.2,1-0.6,1.4-1l1.9,1.9c-0.6,0.7-1.4,1.3-2.3,1.6
			C169,294.6,168,294.7,167,294.7z"/>
	</g>
</g>
<g id="Layer_1">
	<path class="st2" d="M80.1,252.5l7.3,51.6h99.5l31.3-211.8c0,0,0.4-4.2,0.5-5.7c0.1-2.3-0.7-5.9-1.6-7.8c-0.7-1.4-1.8-3.2-3.1-5.5
		c-4.3-7.1-11.9-8.9-17-10.2l-0.8-0.2c-2.1-0.5-4-0.9-5.5-1.5c-1.2-0.5-2-1-2.4-1.5c-0.8-1-1.1-4.4-1.3-6l-0.1-0.6
		c-0.2-1.6-0.4-3.5-0.7-5.2c-0.5-2.8-1.3-4.9-2.4-6.8l-1.6-1.8c-4.2-3.4-8.8-5.2-13.9-5.2c-4.8-0.1-9.1,1.4-12.3,2.6
		c-1.7,0.7-3.5,1.5-5.3,2.3c-1.5,0.7-3,1.3-4.4,1.9c-3.1,1.3-5.4,1.8-7.3,1.9c-2.8,0-6-1.2-11-3.2c-4.5-1.9-10.1-4.3-16.3-4.4
		c-5.8-0.1-12.6,2-17.3,3.8c-6.1,2.3-11.5,5.2-15,8c-4.6,3.7-8.9,10.6-13.4,18.2c-2.5,4.2-5.8,10.6-7.4,17.1
		c-0.8,3.2-0.9,6.8-0.3,10.7l8.7,70.9c-6.7-1.9-13.7-2.4-20.7-1.4c-21.8,3.1-39.3,21.2-41.7,43.1C3.2,219.8,7.6,233.4,17,244
		c9.3,10.4,22.6,16.3,36.6,16.3C63,260.3,72.3,257.5,80.1,252.5z M33.7,211.5c0-10.3,8.6-18.7,19.2-18.7s19.2,8.4,19.2,18.7
		s-8.6,18.7-19.2,18.7S33.7,221.8,33.7,211.5z"/>
	
		<linearGradient id="SVGID_00000044892096903170744450000016791988413877083265_" gradientUnits="userSpaceOnUse" x1="108.1663" y1="311.7455" x2="108.1663" y2="118.6964">
		<stop  offset="0" style="stop-color:#FCF0E6"/>
		<stop  offset="1" style="stop-color:#D0AF94"/>
	</linearGradient>
	<path style="fill:url(#SVGID_00000044892096903170744450000016791988413877083265_);" d="M63,135.2l4.1,28.8
		c-6.7-1.9-13.7-2.4-20.7-1.4c-21.8,3.1-39.3,21.2-41.7,43.1C3.2,219.8,7.6,233.4,17,244c9.3,10.4,22.6,16.3,36.6,16.3
		c9.4,0,18.7-2.7,26.6-7.8l7.3,51.6h95.7l28.7-168.9H63z M52.9,230.2c-10.6,0-19.2-8.4-19.2-18.7s8.6-18.7,19.2-18.7
		s19.2,8.4,19.2,18.7S63.5,230.2,52.9,230.2z"/>
	<g>
		<path class="st13" d="M91,308c-2,0-3.6-1.4-3.9-3.4l-7.3-51.6c-7.8,4.9-17,7.6-26.3,7.6c-27.3,0-49.5-22.2-49.5-49.5
			c0-27.3,22.2-49.5,49.5-49.5c4.4,0,8.8,0.6,13,1.7L55.3,89.9c-0.1-0.8,0-1.5,0.3-2.2c0.2-0.5,0.4-0.9,0.7-1.2
			c0.7-0.9,1.8-1.6,2.9-1.6h88.7c2.2,0,3.9,1.8,3.9,3.9c0,2.2-1.8,3.9-3.9,3.9H63.7l11.6,76c0.2,1.4-0.3,2.8-1.5,3.7
			c-1.1,0.9-2.6,1.1-3.9,0.5c-5.2-2.2-10.7-3.3-16.4-3.3c-23,0-41.6,18.7-41.6,41.6c0,23,18.7,41.7,41.6,41.7
			c9.8,0,19.3-3.5,26.7-9.7c1.1-0.9,2.6-1.2,3.9-0.7c1.3,0.5,2.3,1.7,2.5,3.1l7.7,54.6h85.5l30.7-207.5h-19c-2.2,0-3.9-1.8-3.9-3.9
			c0-2.2,1.8-3.9,3.9-3.9h23.5c1.1,0,2.2,0.5,3,1.4c0.7,0.8,1,1.8,0.9,2.8c0,0.3,0,0.6,0,0.9l-0.5,2.8l-31.3,212
			c-0.3,1.9-1.9,3.3-3.9,3.3L91,308z M52.9,237.7c-14.7,0-26.7-11.7-26.7-26.2s12-26.2,26.7-26.2c14.7,0,26.7,11.7,26.7,26.2
			S67.6,237.7,52.9,237.7z M52.9,193.2c-10.4,0-18.9,8.2-18.9,18.3s8.5,18.3,18.9,18.3s18.9-8.2,18.9-18.3S63.3,193.2,52.9,193.2z"
			/>
	</g>
	<g>
		<path class="st2" d="M239.3,91.2c-1.9,0-3.6-1.4-3.9-3.3c-0.3-2.1,1.2-4.1,3.3-4.4l38.4-5.7c2.1-0.3,4.1,1.2,4.4,3.3
			c0.3,2.1-1.2,4.1-3.3,4.4l-38.4,5.7C239.7,91.2,239.5,91.2,239.3,91.2z"/>
	</g>
	<g>
		<path class="st2" d="M235.1,58.2c-1,0-2.1-0.4-2.8-1.2c-1.5-1.6-1.4-4,0.1-5.5l27-25.8c1.6-1.5,4-1.4,5.5,0.1
			c1.5,1.6,1.4,4-0.1,5.5l-27,25.8C237,57.9,236.1,58.2,235.1,58.2z"/>
	</g>
	<g>
		<path class="st2" d="M205.2,48.2c0,0-0.1,0-0.1,0c-2.2-0.1-3.8-1.9-3.8-4.1c1.4-37.3,1.4-37.6,1.5-38c0.4-2.1,2.5-3.5,4.6-3
			c2,0.4,3.3,2.2,3.1,4.2c-0.1,1.6-0.9,23-1.4,37.1C209,46.5,207.3,48.2,205.2,48.2z"/>
	</g>
	<path class="st13" d="M247.3,268.4l-94.1-40.4c-4.7-2-9.8,2-9,7.1l16.6,101.9c0.9,5.7,8.5,6.7,10.9,1.5l16.2-35.4l39.3,50.5
		l20.4-16.2l-39.3-50.5l37.9-7.6C251.8,278.4,252.5,270.7,247.3,268.4z"/>
	<g>
		<path class="st13" d="M528.2,243.9c-2.2-2.5-4.7-4.6-7.7-6.2c-4.3-2.5-9.3-3.7-15-3.7c-6.7,0-12.8,1.8-18.2,5.3
			c-5.4,3.4-9.6,8-12.8,13.9c-3.1,5.8-4.6,12.3-4.6,19.6c0,7.2,1.5,13.8,4.6,19.6c3.2,5.8,7.5,10.4,12.8,13.8
			c5.5,3.4,11.5,5.1,18.2,5.1c5.7,0,10.7-1.2,15.1-3.6c3-1.7,5.5-3.8,7.6-6.2v8.2h17v-74.2h-17V243.9z M523.4,288.9
			c-3.8,4.2-8.9,6.3-15.1,6.3c-4.1,0-7.8-0.9-11-2.8c-3.1-2-5.6-4.6-7.4-8c-1.8-3.4-2.6-7.3-2.6-11.7c0-4.4,0.9-8.3,2.6-11.7
			c1.9-3.4,4.3-6,7.4-7.9c3.2-2,6.9-2.9,11-2.9c4.2,0,7.9,1,11,2.9c3.2,1.9,5.7,4.5,7.4,7.9c1.8,3.4,2.6,7.3,2.6,11.7
			C529.3,279.3,527.3,284.7,523.4,288.9z"/>
		<path class="st13" d="M586.9,253.3c3.3-2,7.1-2.9,11.3-2.9c3.6,0,6.9,0.7,9.9,2c3.1,1.2,5.7,3.1,7.9,5.7l11.1-11.3
			c-3.5-4.1-7.8-7.3-12.8-9.4c-4.9-2.3-10.3-3.4-16.1-3.4c-7.3,0-14,1.7-19.9,5.1c-5.9,3.4-10.5,8-13.9,13.9
			c-3.4,5.8-5.1,12.3-5.1,19.6c0,7.2,1.7,13.8,5.1,19.6c3.4,5.9,8,10.5,13.9,13.9c6,3.4,12.6,5.1,19.9,5.1c5.8,0,11.1-1.1,16.1-3.2
			c5-2.3,9.3-5.5,12.8-9.6L616,287.2c-2.2,2.6-4.8,4.5-7.9,5.9c-3,1.2-6.3,1.9-9.9,1.9c-4.2,0-8-0.9-11.3-2.8
			c-3.2-2-5.7-4.6-7.6-7.9c-1.8-3.4-2.6-7.3-2.6-11.6c0-4.4,0.9-8.3,2.6-11.6C581.2,257.8,583.7,255.2,586.9,253.3z"/>
		<path class="st13" d="M888.3,243.9c-2.2-2.5-4.7-4.6-7.7-6.2c-4.3-2.5-9.3-3.7-15-3.7c-6.7,0-12.8,1.8-18.2,5.3
			c-5.4,3.4-9.6,8-12.8,13.9c-3.1,5.8-4.6,12.3-4.6,19.6c0,7.2,1.5,13.8,4.6,19.6c3.2,5.8,7.5,10.4,12.8,13.8
			c5.5,3.4,11.5,5.1,18.2,5.1c5.7,0,10.7-1.2,15.1-3.6c3-1.7,5.5-3.8,7.6-6.2v8.2h17v-74.2h-17V243.9z M883.5,288.9
			c-3.8,4.2-8.9,6.3-15.1,6.3c-4.1,0-7.8-0.9-11-2.8c-3.1-2-5.6-4.6-7.4-8c-1.7-3.4-2.6-7.3-2.6-11.7c0-4.4,0.9-8.3,2.6-11.7
			c1.9-3.4,4.3-6,7.4-7.9c3.2-2,6.9-2.9,11-2.9c4.2,0,7.9,1,11,2.9c3.2,1.9,5.7,4.5,7.4,7.9c1.8,3.4,2.6,7.3,2.6,11.7
			C889.4,279.3,887.4,284.7,883.5,288.9z"/>
		<path class="st13" d="M442.7,237.4c-4.3-2.3-9.2-3.4-14.5-3.4c-5.3,0-10.1,1.2-14.5,3.6c-4.1,2.1-7.4,5.1-10.1,8.9
			c-2.4-3.8-5.6-6.9-9.7-9c-4.2-2.3-9-3.4-14.2-3.4c-5.3,0-10,1.2-14.2,3.6c-2.8,1.5-5.1,3.4-7.1,5.7v-7.7h-17v74.2h17v-44.2
			c0-3.3,0.7-6.1,2.2-8.3c1.4-2.4,3.3-4.2,5.7-5.4c2.5-1.2,5.3-1.9,8.3-1.9c4.5,0,8.3,1.4,11.4,4.2c3.1,2.7,4.6,6.5,4.6,11.4v44.2
			h17v-44.2c0-3.3,0.7-6.1,2.2-8.3c1.4-2.4,3.4-4.2,5.9-5.4c2.5-1.2,5.2-1.9,8.2-1.9c4.5,0,8.3,1.4,11.4,4.2
			c3.1,2.7,4.6,6.5,4.6,11.4v44.2h17v-47.9c0-5.8-1.3-10.7-3.9-14.8C450.5,242.9,447,239.7,442.7,237.4z"/>
		<polygon class="st13" points="952.5,204.7 935.5,204.7 935.5,235.6 917.7,235.6 917.7,251 935.5,251 935.5,309.8 952.5,309.8 
			952.5,251 970.2,251 970.2,235.6 952.5,235.6 		"/>
		<rect x="798.5" y="235.6" class="st13" width="17" height="74.2"/>
		<path class="st13" d="M767.1,237.7c-4.3-2.5-9.3-3.7-14.8-3.7c-5.5,0-10.4,1.3-14.8,3.9c-2.8,1.6-5.2,3.7-7.3,6.2v-45.6h-17v111.3
			h17v-42.8c0-3.3,0.7-6.2,2.2-8.8c1.4-2.6,3.5-4.6,6-6c2.6-1.4,5.5-2.2,8.8-2.2c4.9,0,9,1.6,12.1,4.8c3.2,3.2,4.8,7.3,4.8,12.2
			v42.8h17v-46.5c0-5.8-1.2-10.8-3.7-15.1C774.8,243.7,771.4,240.2,767.1,237.7z"/>
		<path class="st13" d="M807,201.6c-2.9,0-5.3,1-7.3,2.9c-1.9,2-2.8,4.4-2.8,7.3c0,2.9,0.9,5.3,2.8,7.3c2,2,4.4,2.9,7.3,2.9
			c3,0,5.4-1,7.3-2.9c1.9-2,2.8-4.4,2.8-7.3c0-2.9-0.9-5.3-2.8-7.3C812.4,202.6,809.9,201.6,807,201.6z"/>
		<path class="st13" d="M660.7,253.3c3.3-2,7.1-2.9,11.3-2.9c3.6,0,6.9,0.7,9.9,2c3.1,1.2,5.7,3.1,7.9,5.7l11.1-11.3
			c-3.5-4.1-7.8-7.3-12.8-9.4c-4.9-2.3-10.3-3.4-16.1-3.4c-7.3,0-14,1.7-19.9,5.1c-5.9,3.4-10.5,8-13.9,13.9
			c-3.4,5.8-5.1,12.3-5.1,19.6c0,7.2,1.7,13.8,5.1,19.6c3.4,5.9,8,10.5,13.9,13.9c6,3.4,12.6,5.1,19.9,5.1c5.8,0,11.1-1.1,16.1-3.2
			c5.1-2.3,9.3-5.5,12.8-9.6l-11.1-11.3c-2.2,2.6-4.8,4.5-7.9,5.9c-3,1.2-6.3,1.9-9.9,1.9c-4.2,0-8-0.9-11.3-2.8
			c-3.2-2-5.7-4.6-7.6-7.9c-1.7-3.4-2.6-7.3-2.6-11.6c0-4.4,0.9-8.3,2.6-11.6C655,257.8,657.5,255.2,660.7,253.3z"/>
		<path class="st13" d="M1016.9,231.5c2.4,0,4.3-0.8,5.7-2.3c1.5-1.6,2.3-3.5,2.3-5.8c0-2.2-0.8-4.1-2.3-5.7
			c-1.4-1.6-3.4-2.4-5.7-2.4c-2.3,0-4.2,0.8-5.7,2.4c-1.5,1.6-2.3,3.5-2.3,5.7c0,2.3,0.8,4.3,2.3,5.8
			C1012.6,230.7,1014.6,231.5,1016.9,231.5z"/>
		<path class="st13" d="M1046.8,289.7c4.3,2.4,9,3.6,14.3,3.6s10-1.2,14.2-3.6c4.3-2.5,7.6-5.7,10.1-9.8c2.5-4.2,3.7-8.8,3.7-14
			c0-5.1-1.2-9.7-3.7-13.7c-2.4-4.1-5.8-7.4-10.1-9.7c-4.2-2.5-8.9-3.7-14.3-3.7c-5.2,0-9.9,1.2-14.2,3.7c-4.3,2.4-7.6,5.6-10.1,9.7
			c-2.5,4-3.7,8.6-3.7,13.7c0,5.1,1.2,9.8,3.7,14C1039.3,283.9,1042.7,287.2,1046.8,289.7z M1049.3,258.7c1.2-2.1,2.7-3.7,4.8-4.9
			c2-1.2,4.3-1.8,6.9-1.8c2.7,0,5,0.6,7,1.8c2,1.2,3.6,2.8,4.8,4.9c1.2,2.1,1.7,4.5,1.7,7.2c0,2.7-0.6,5.2-1.7,7.4
			c-1.1,2.1-2.7,3.8-4.8,5c-2,1.2-4.4,1.7-7,1.7c-2.6,0-4.9-0.6-6.9-1.7c-2-1.2-3.6-2.9-4.8-5c-1.2-2.2-1.7-4.6-1.7-7.4
			C1047.6,263.2,1048.2,260.8,1049.3,258.7z"/>
		<path class="st13" d="M993.8,290.6c1.7-1.7,2.5-3.9,2.5-6.4c0-2.5-0.8-4.7-2.5-6.4c-1.7-1.7-3.8-2.6-6.3-2.6
			c-2.6,0-4.7,0.9-6.4,2.6c-1.7,1.7-2.5,3.9-2.5,6.4c0,2.5,0.8,4.7,2.5,6.4c1.7,1.7,3.8,2.6,6.4,2.6
			C990.1,293.2,992.2,292.4,993.8,290.6z"/>
		<rect x="1009.7" y="239.9" class="st13" width="14.3" height="52.3"/>
		<path class="st13" d="M1098.1,307.2l-112.8,20.1c-2.3,0.4-3.9,2.6-3.4,4.9c0.4,2.1,2.2,3.5,4.2,3.5c0.3,0,0.5,0,0.8-0.1
			l112.8-20.1c2.3-0.4,3.9-2.6,3.4-4.9C1102.6,308.3,1100.3,306.8,1098.1,307.2z"/>
		<polygon class="st13" points="361.4,164.5 412.4,164.5 412.4,148.3 361.4,148.3 361.4,56.3 343.7,56.3 343.7,164.5 355.9,164.5 		
			"/>
		<path class="st13" d="M665.4,162.8c5.2-2.2,9.5-5.4,13.1-9.6l-10.8-11c-2.3,2.6-5,4.5-8.3,5.9c-3.2,1.3-6.7,2-10.5,2
			c-4.4,0-8.3-0.9-11.7-2.8c-3.4-2-6-4.7-7.9-8.2c-0.9-1.7-1.5-3.5-2-5.4h55.3c0.3-1.5,0.5-2.9,0.6-4.2c0.2-1.3,0.3-2.6,0.3-3.9
			c0-7.1-1.5-13.4-4.6-19c-3-5.6-7.2-9.9-12.5-13.1c-5.3-3.2-11.3-4.8-18.2-4.8c-7.1,0-13.6,1.7-19.5,5.1c-5.8,3.4-10.4,8-13.8,13.9
			c-3.4,5.8-5.1,12.3-5.1,19.6c0,7.3,1.7,13.9,5.1,19.8c3.5,5.9,8.2,10.5,14.1,13.9c6,3.3,12.7,4.9,20.1,4.9
			C654.7,166,660.2,164.9,665.4,162.8z M629,115c1.7-3.4,4.2-6,7.4-7.9c3.2-1.9,7-2.8,11.3-2.8c4.1,0,7.6,0.8,10.4,2.5
			c2.9,1.6,5.1,4,6.6,7.1c0.9,1.7,1.5,3.7,1.9,5.9h-39.3C627.7,118.1,628.3,116.5,629,115z"/>
		<polygon class="st13" points="524.7,164.5 541.7,164.5 541.7,105.8 569.5,105.8 569.5,164.5 586.5,164.5 586.5,105.8 604.3,105.8 
			604.3,90.3 586.5,90.3 586.5,59.4 569.5,59.4 569.5,90.3 541.7,90.3 541.7,59.4 524.7,59.4 524.7,90.3 506.9,90.3 506.9,105.8 
			524.7,105.8 		"/>
		<path class="st13" d="M436.6,160.9c5.5,3.4,11.5,5.1,18.2,5.1c5.7,0,10.7-1.2,15.1-3.6c3-1.7,5.5-3.8,7.6-6.2v8.2h17V90.3h-17v8.3
			c-2.2-2.5-4.7-4.6-7.7-6.2c-4.3-2.5-9.3-3.7-15-3.7c-6.7,0-12.8,1.8-18.2,5.3c-5.4,3.4-9.6,8-12.8,13.9
			c-3.1,5.8-4.6,12.3-4.6,19.6c0,7.2,1.5,13.8,4.6,19.6C426.9,152.9,431.2,157.5,436.6,160.9z M439.2,115.6c1.9-3.4,4.3-6,7.4-7.9
			c3.2-2,6.9-2.9,11-2.9c4.2,0,7.9,1,11,2.9c3.2,1.9,5.7,4.5,7.4,7.9c1.8,3.4,2.6,7.3,2.6,11.7c0,6.6-2,12-5.9,16.2
			c-3.8,4.2-8.9,6.3-15.1,6.3c-4.1,0-7.8-0.9-11-2.8c-3.1-2-5.6-4.6-7.4-8c-1.8-3.4-2.6-7.3-2.6-11.7
			C436.6,123,437.4,119,439.2,115.6z"/>
	</g>
</g>
</svg>
